<svg width="74" height="74" viewBox="0 0 74 74" fill="none" xmlns="http://www.w3.org/2000/svg">
<circle cx="37" cy="37" r="37" fill="#EFEFEF"/>
<path fill-rule="evenodd" clip-rule="evenodd" d="M26 26H47.7209C48.8255 26 49.7209 26.8954 49.7209 28V40.3157L41.0202 38.54C40.2305 38.3788 39.4266 38.2976 38.6207 38.2976H35.1005C34.2946 38.2976 33.4906 38.3788 32.7009 38.54L24 40.3157V28C24 26.8954 24.8954 26 26 26ZM22 28C22 25.7909 23.7909 24 26 24H47.7209C49.9301 24 51.7209 25.7909 51.7209 28V45.9957C51.7209 46.8617 51.4457 47.6634 50.978 48.3182V48.6959H50.672C49.9407 49.4948 48.8893 49.9957 47.7209 49.9957H26C24.8316 49.9957 23.7802 49.4948 23.0489 48.6959H22.7431V48.3185C22.2753 47.6637 22 46.8618 22 45.9957V28ZM32.8077 31.0897C32.8077 32.3949 31.598 33.453 30.1058 33.453C28.6136 33.453 27.4039 32.3949 27.4039 31.0897C27.4039 29.7845 28.6136 28.7265 30.1058 28.7265C31.598 28.7265 32.8077 29.7845 32.8077 31.0897Z" fill="#CDCDCD"/>
</svg>
