<svg width="100" height="100" viewBox="0 0 100 100" fill="none" xmlns="http://www.w3.org/2000/svg">
<circle cx="50" cy="50" r="50" fill="#EFEFEF"/>
<rect x="33.7411" y="69.0261" width="32.4" height="1.8" fill="#CDCDCD"/>
<path fill-rule="evenodd" clip-rule="evenodd" d="M35.9411 37.7261H63.9411C65.0457 37.7261 65.9411 38.6216 65.9411 39.7261V58.4195L54.8866 55.8401C53.9926 55.6315 53.0777 55.5262 52.1598 55.5262H47.7227C46.8048 55.5262 45.8899 55.6315 44.996 55.8401L33.9411 58.4195V39.7261C33.9411 38.6216 34.8365 37.7261 35.9411 37.7261ZM31.9411 39.7261C31.9411 37.517 33.732 35.7261 35.9411 35.7261H63.9411C66.1502 35.7261 67.9411 37.517 67.9411 39.7261V67.7261C67.9411 69.9353 66.1502 71.7261 63.9411 71.7261H35.9411C33.732 71.7261 31.9411 69.9353 31.9411 67.7261V39.7261ZM45.0321 45.5443C45.0321 47.3518 43.5668 48.817 41.7594 48.817C39.9519 48.817 38.4866 47.3518 38.4866 45.5443C38.4866 43.7368 39.9519 42.2716 41.7594 42.2716C43.5668 42.2716 45.0321 43.7368 45.0321 45.5443Z" fill="#CDCDCD"/>
</svg>
