<svg width="23" height="23" viewBox="0 0 23 23" fill="none" xmlns="http://www.w3.org/2000/svg">
<path fill-rule="evenodd" clip-rule="evenodd" d="M5.4924 10.0694L10.5667 4.8978L11.1981 5.54138L6.12387 10.713L5.4924 10.0694Z" fill="#999999"/>
<path fill-rule="evenodd" clip-rule="evenodd" d="M7.17624 11.7856L12.2505 6.61399L12.882 7.25757L7.8077 12.4292L7.17624 11.7856Z" fill="#999999"/>
<path fill-rule="evenodd" clip-rule="evenodd" d="M10.7545 15.4324L15.8288 10.2608L16.4603 10.9044L11.386 16.076L10.7545 15.4324Z" fill="#999999"/>
<path fill-rule="evenodd" clip-rule="evenodd" d="M12.4383 17.1486L17.5125 11.977L18.144 12.6206L13.0697 17.7922L12.4383 17.1486Z" fill="#999999"/>
<path fill-rule="evenodd" clip-rule="evenodd" d="M12.4385 17.1487C10.6869 18.9338 7.85347 18.9402 6.10974 17.163C4.366 15.3859 4.37231 12.498 6.12383 10.7129L5.49237 10.0693C3.39055 12.2115 3.38297 15.6769 5.47546 17.8095C7.56794 19.9421 10.9681 19.9344 13.0699 17.7923L12.4385 17.1487Z" fill="#999999"/>
<path fill-rule="evenodd" clip-rule="evenodd" d="M15.8286 10.2609L16.4601 10.9045C18.0949 9.23835 18.1007 6.54305 16.4733 4.88434C14.8458 3.22563 12.2012 3.23163 10.5664 4.89775L11.1979 5.54133C12.4824 4.23224 14.5602 4.22752 15.839 5.53079C17.1177 6.83406 17.1131 8.9518 15.8286 10.2609Z" fill="#999999"/>
<path fill-rule="evenodd" clip-rule="evenodd" d="M7.17639 11.7856C6.00871 12.9757 6.0045 14.9009 7.16699 16.0857C8.32949 17.2705 10.2185 17.2662 11.3861 16.0762L10.7547 15.4326C9.9373 16.2656 8.61502 16.2686 7.80128 15.4393C6.98753 14.6099 6.99048 13.2623 7.80785 12.4292L7.17639 11.7856Z" fill="#999999"/>
</svg>
