<svg width="29" height="26" viewBox="0 0 29 26" fill="none" xmlns="http://www.w3.org/2000/svg">
<path fill-rule="evenodd" clip-rule="evenodd" d="M16.4347 15.1075C14.4485 16.8845 11.2282 16.8845 9.24196 15.1075C7.25574 13.3305 7.25574 10.4493 9.24196 8.6723C11.2282 6.89527 14.4485 6.89527 16.4347 8.6723C18.4209 10.4493 18.4209 13.3305 16.4347 15.1075ZM17.0455 16.8238C14.3265 18.6845 10.421 18.5025 7.93419 16.2775C5.22572 13.8543 5.22572 9.92549 7.93419 7.50226C10.6427 5.07904 15.034 5.07904 17.7424 7.50226C20.2292 9.72709 20.4328 13.2211 18.3533 15.6537L23.3006 20.08L21.9928 21.2501L17.0455 16.8238Z" fill="#999999"/>
</svg>
